# xmcd
#
# Track frame offsets:
#  150
#  14026
#  48860
#
# Disc length: 1002 seconds
#
# Revision: 0
# Processed by: cddbd v1.5.1PL2 Copyright (c) Steve Scherf et al.
# Submitted via: Collectorz.com_Music_Collector 6.10
#
DISCID=1e03e803
DTITLE=Danzel vs. DJ F.R.A.N.K. - My arms keep missing you
DYEAR=2006
DGENRE=Dance
TTITLE0=My arms keep missing you
TTITLE1=My arms keep missing you
TTITLE2=Breakin' up
EXTD=
EXTT0=
EXTT1=
EXTT2=
PLAYORDER=
